<?xml version="1.0" encoding="utf-8"?>
<!-- Generator: Adobe Illustrator 19.1.0, SVG Export Plug-In . SVG Version: 6.00 Build 0)  -->
<svg version="1.1" id="Layer_1" xmlns="http://www.w3.org/2000/svg" xmlns:xlink="http://www.w3.org/1999/xlink" x="0px" y="0px"
	 viewBox="0 0 305.2 51.8" style="enable-background:new 0 0 305.2 51.8;" xml:space="preserve">
<g>
	<path d="M24.5,15.5c-1-3.5-2.9-7-7-7c-3.3,0-6.1,2.4-6.1,5.8c0,9.9,23.6,3.4,23.6,22.1c0,6.1-4.6,15.3-17,15.3
		c-9.5,0-16.4-4.6-18-14.4l10.1-1.5c0.9,4.3,3.1,7.4,7.9,7.4c3.9,0,7.2-2.1,7.2-6.4c0-10.1-23.6-4.3-23.6-21.3C1.5,6.4,9.2,0,17.9,0
		c8.5,0,14.9,5.5,15.7,13.9L24.5,15.5z"/>
	<path d="M39,32.9c0-9.6,5.3-18.8,15.9-18.8c10.6,0,15.9,9.2,15.9,18.8c0,9.5-5.4,18.8-15.9,18.8C44.3,51.7,39,42.4,39,32.9z
		 M60.9,32.9c0-4.5-0.9-11.8-6.1-11.8c-5.2,0-6.1,7.3-6.1,11.8c0,4.5,0.9,11.8,6.1,11.8C60,44.7,60.9,37.4,60.9,32.9z"/>
	<path d="M105.7,39.3c-1.5,7.5-7,12.4-15.1,12.4c-10.5,0-15.9-9.3-15.9-18.8c0-9.6,5.3-18.8,15.9-18.8c8.1,0,13.5,4.9,15.1,12.4
		L97,28c-0.7-3.4-1.6-6.9-6.5-6.9c-5.2,0-6.1,7.3-6.1,11.8c0,4.5,0.9,11.8,6.1,11.8c4.8,0,5.7-3.5,6.5-7L105.7,39.3z"/>
	<path d="M120.4,9.5h-9.5V0.8h9.5V9.5z M120.4,51h-9.5V14.8h9.5V51z"/>
	<path d="M147.2,47.7c-3.5,2.5-5.7,4.1-10.3,4.1c-6.3,0-11.4-4.3-11.4-10.7c0-10.2,13.4-12.3,21.1-13.1c0.6-5-1-6.8-4.6-6.8
		c-3,0-5.2,1.4-5.7,4.5l-9.2-1.4c2.1-7.7,7.3-10.1,14.8-10.1c9.7,0,14.2,4.6,14.2,11.4v17.9c0,2.6,0.1,5.2,1.3,7.5h-9.3L147.2,47.7z
		 M146.7,34.4c-3.9,0.7-11.7,1.1-11.7,6.4c0,2.1,1,3.9,3.3,3.9c3.9,0,6.6-2.3,8.4-4.7V34.4z"/>
	<path d="M172.7,51h-9.5V0.8h9.5V51z"/>
	<path d="M234,0.1l-3.3,12.2h-1.8c0.1-7.2-1.3-10.4-7.6-10.4h-7.2l-10.2,37.9c-0.9,3.2-1.1,4.4-1.1,5.2c0,2.2,1.9,4,6.6,3.9
		l-0.4,1.9h-22.2l0.4-1.9c5.5,0.3,8.3-2.3,9.6-7.2L207.5,2h-7.1c-5.3,0-7.9,1.8-13.1,10.4h-1.8l3.3-12.2H234z"/>
	<path d="M241.2,41c-3.9,7-9,10.8-14.5,10.8c-5.5,0-9.4-3.9-9.4-9.5c0-11.2,11.7-24.4,19.5-24.4c3.4,0,5.7,2.2,5.7,5.8
		c0,2-1,4.8-3.1,6.9c-3.7,3.7-10.7,6.4-16.4,7c-0.2,0.4-0.4,1.7-0.4,3.1c0,4.2,2.5,7.2,6.5,7.2c3.1,0,7.2-2.3,9.7-6.8H241.2z
		 M234.3,20.8c-3.8,0-7.8,5.7-10.7,14.9c5-0.7,9.2-2.4,12.3-5.4c0.7-0.7,2.5-2.8,2.5-5.4C238.3,22.6,236.6,20.8,234.3,20.8z"/>
	<path d="M255.8,23.9c-0.7-1.8-1-2.3-1.8-2.3c-1,0-2.6,2.3-3.9,5.7h-2.2c2.6-6.3,5.4-9.4,8.6-9.4c2.1,0,2.8,0.7,3.9,3.9l3.4,9.1
		l2.8-4c5-7.2,6.9-9,9.3-9c2.1,0,3.6,1.7,3.6,4c0,2-1,3.4-2.5,3.4c-2.5,0-1.6-3.3-3.1-3.3c-1,0-2.3,1.3-4.2,4l-5.1,7l3.9,10.5
		c1.2,3.2,1.6,4.1,2.5,4.1c1.2,0,3-2.2,4.5-6.2h2.1c-2.2,5.9-6,10.3-9.1,10.3c-2,0-3.4-1.4-4.7-5.2l-3-8.6l-2.4,3.4
		c-5.8,8.1-7.8,10.4-11,10.4c-2.1,0-3.4-1.5-3.4-3.9c0-2,1-3.5,2.2-3.5c2.1,0,1.7,3.1,3.3,3.1c1.2,0,3.2-1.8,6.6-6.5l3.7-5.1
		L255.8,23.9z"/>
	<path d="M291.5,45.1c-0.7,2.7-0.2,3.7,1,3.7c1.9,0,4.5-2.1,7.8-6.4h2.4c-4.2,6.2-8.6,9.4-12.7,9.4c-2.5,0-4.2-1.6-4.2-3.8
		c0-0.7,0.1-1.6,0.4-2.4l6.9-24.8h-6.1l0.6-1.9c5.9-0.9,8.5-2.5,11.8-7.5h1.9l-2.3,7.5h6.4l-0.6,1.9h-6.4L291.5,45.1z"/>
</g>
</svg>
